<svg xmlns="http://www.w3.org/2000/svg" enable-background="new 0 0 68 68" viewBox="0 0 68 68" id="Triquetra">
  <path fill="#fe8001" d="M49.8827,63.2562c-27.9393,0-37.2136-26.8141-26.9209-45.4241c2.15-3.8875,4.4533-7.7586,8.9605-12.3686
		c0.95-0.9731,2.5086-0.9904,3.4807-0.0394c0.9721,0.9505,0.9899,2.5086,0.0394,3.4807c-4.0827,4.1764-6.1168,7.5927-8.173,11.31
		c-4.7677,8.6206-4.5774,19.0984,0.4966,27.344c10.3489,16.8147,34.7549,9.0398,35.0011,8.9595
		c1.2942-0.4236,2.6827,0.2803,3.1057,1.5716c0.424,1.2913-0.2788,2.6822-1.5711,3.1062
		C64.1691,61.2399,57.8321,63.2562,49.8827,63.2562z" class="colorff7e7e svgShape"></path>
  <path fill="#ffffff" d="M63.5335,61.3192c-1.0711,0-2.0557-0.7038-2.3654-1.7846c-1.6082-5.6177-3.5697-9.0754-5.7812-12.6999
		c-5.1302-8.411-14.3042-13.4273-24.0046-13.1047C11.746,34.395,7.0687,58.2885,6.8788,59.3053
		c-0.2486,1.3356-1.5293,2.2202-2.8682,1.9707c-1.3356-0.2471-2.2187-1.5279-1.9731-2.8639
		c0.0534-0.288,5.5697-28.8031,29.1786-29.6021c11.4595-0.3904,22.3204,5.537,28.3738,15.4609
		c2.313,3.7908,4.536,7.7071,6.311,13.909c0.374,1.3067-0.3817,2.6697-1.6884,3.0437
		C63.9854,61.2884,63.7575,61.3192,63.5335,61.3192z" class="color92da0d svgShape"></path>
  <path fill="#00fc58" d="M3.8586,60.9327c-1.3187-0.3312-2.1187-1.6687-1.787-2.987c0.3317-1.3192,1.6721-2.1182,2.987-1.787
				c19.2469,4.8388,31.8747-2.4559,37.2847-13.8902c8.4177-17.7912-9.4682-32.5492-10.234-33.1689
				c-1.0553-0.8543-1.2211-2.4033-0.3683-3.4601c0.8538-1.0567,2.4014-1.224,3.4577-0.3731
				c0.2183,0.1755,21.6806,17.7902,11.5946,39.1078C40.4033,57.8783,25.4855,66.3707,3.8586,60.9327z" class="color4dabf4 svgShape"></path>
  <path fill="#1f2320" d="M66.9582,58.4208c0.0097-0.029-0.0256-0.2606-0.09-0.47c0-0.0168-0.0243-0.1186-0.05-0.17
				c-2.6377-9.1587-8.182-18.9682-16.34-24.4c0.35-14.99-11.85-26.44-14.25-28.54c-1.5243-1.5243-3.6648-1.4257-4.98-0.11
				c-0.2901,0.1442-12.4108,12.1125-13.28,26.95c-12.4706,7.6046-17.0661,25.3227-16.96,26.97c-0.11,1.71,1.09,3.29,2.82,3.61
				c0.45,0.08,0.88,0.08,1.3,0c3.9399,0.89,7.77,1.34,11.41,1.34c5.94,0,11.4-1.21,16.15-3.5c9.341,5.2471,22.022,5.0888,31.8,2.08
				c0.1988,0,1.086-0.4569,1.28-0.69c0.3658-0.2437,0.89-1.05,0.89-1.15C66.9919,59.674,67.0535,58.8654,66.9582,58.4208z
				 M30.4682,8.5108c0.4013,0.9935,0.893,1.225,1.96,2.21c-4.2425,4.9599-8.2843,11.9978-9.28,18.53c-1.08,0.37-2.11,0.8-3.09,1.28
				C20.8762,22.292,25.4803,14.2837,30.4682,8.5108z M33.8782,12.1008c3.18,3.22,8.49,9.66,9.52,17.68
				c-6.2947-2.2935-12.8505-2.5007-18.11-1.15c0.51-2.73,1.47-5.41,2.86-7.93C29.7382,17.8208,31.3181,15.1208,33.8782,12.1008z
				 M43.5782,31.9908c0.03,1.01-0.02,2.05-0.15,3.1c-14.6078-6.4877-30.2964-0.4146-36.63,20.46c-0.5-0.1201-1-0.23-1.5-0.36
				c-0.27-0.07-0.56-0.11-0.84-0.11c-0.18,0-0.36,0.01-0.53,0.04C10.7935,32.6484,27.511,25.5722,43.5782,31.9908z M20.2581,38.4208
				c0.86-0.61,1.77-1.15,2.75-1.63c0.6957,5.989,3.4885,12.258,8.13,16.33c-0.87,0.5-1.78,0.94-2.73,1.33
				C24.275,50.5077,21.275,45.0301,20.2581,38.4208z M26.3282,55.2208c-2.98,0.96-6.26,1.46-9.8,1.46c-2.47,0-5.07-0.25-7.76-0.74
				c1.3-4.24,4.15-11.32,9.71-16.13C19.6268,46.0129,22.5095,51.3054,26.3282,55.2208z M24.9282,35.9708
				c5.7833-2.1355,12.5769-1.4181,18.15,1.16c-1.2618,5.5162-4.8749,11.2587-10.19,14.9
				C28.2673,48.1336,25.5043,42.012,24.9282,35.9708z M16.5382,61.6008c-2.93,0-5.99-0.3-9.15-0.91
				c-3.5269-0.6869-4.2074-0.8105-4.38-1.96c0.0073-0.1574-0.0185-0.0521,0.1801-0.9c0.747-1.3447,1.8219-0.5113,5.03,0.04v0.01
				c2.87,0.53,5.66,0.8,8.31,0.8c24.5562,0,40.6588-25.913,18.68-48.08c-0.7335-0.7335-1.663-1.6341-2.47-2.28
				c-1.125-0.9221-0.3797-2.6921,1.08-2.58c0.02,0.01,0.05,0.01,0.07,0.02c0.4871,0.0513,0.6419,0.29,0.7,0.29
				c0.1776,0.177,0.9371,0.7795,2.37,2.24C61.0084,32.7097,43.7327,61.6008,16.5382,61.6008z M49.1782,41.0508
				c4.3897,3.7777,7.9443,10.0079,9.92,15.36c-6.351,1.2921-13.6567,1.5066-19.7-0.68
				C44.1319,51.7147,47.5276,46.2564,49.1782,41.0508z M34.8282,58.9508c0.96-0.54,1.88-1.15,2.77-1.8
				c6.7948,2.8136,14.9136,2.6871,22.16,1.16c0.4769,1.5259,0.5059,2.0025,1.1,2.7401
				C52.3124,62.9534,42.6571,62.9015,34.8282,58.9508z M63.9882,60.2508c-0.01,0-0.01,0-0.02,0.01h-0.03c-0.01,0-0.01,0-0.02,0.01
				c-0.75,0.2-1.57-0.27-1.79-1.01c-0.14-0.48-0.28-0.95-0.42-1.4c-0.21-0.67-0.43-1.3-0.65-1.91
				c-2.2024-6.0916-6.2381-12.9545-11.3-17c0.26-1.1,0.45-2.18,0.56-3.24c6.5085,4.6908,11.1288,12.5544,13.66,19.71
				c0.0842,0.2446,1.02,2.9967,1.02,3.43C64.9982,59.4023,64.5501,59.9701,63.9882,60.2508z" class="color231f20 svgShape"></path>
</svg>
